<svg width="300" height="300" viewBox="0 0 300 300" fill="none" xmlns="http://www.w3.org/2000/svg">
<path d="M111.012 149.403H108.784C108.767 149.403 108.75 149.409 108.736 149.42C108.722 149.431 108.713 149.447 108.71 149.465L107.019 159.006C107.016 159.023 107.007 159.039 106.994 159.05C106.98 159.061 106.963 159.067 106.945 159.067H102.176C102.159 159.067 102.143 159.073 102.13 159.083C102.116 159.093 102.107 159.108 102.103 159.124L100.866 164.491C100.862 164.507 100.853 164.522 100.84 164.532C100.827 164.542 100.81 164.548 100.794 164.548H97.4893C97.4781 164.548 97.467 164.546 97.4568 164.541C97.4467 164.536 97.4378 164.529 97.4309 164.52C97.4239 164.511 97.4191 164.501 97.4167 164.49C97.4143 164.478 97.4144 164.467 97.4171 164.456L98.6368 159.161C98.6394 159.15 98.6396 159.139 98.6372 159.128C98.6348 159.117 98.6299 159.106 98.623 159.098C98.616 159.089 98.6072 159.082 98.597 159.077C98.5869 159.072 98.5758 159.069 98.5645 159.069H93.8586C93.8478 159.069 93.8371 159.067 93.8274 159.062C93.8177 159.057 93.8091 159.05 93.8022 159.042C93.7953 159.034 93.7903 159.024 93.7876 159.014C93.7848 159.003 93.7844 158.992 93.7863 158.982L95.5995 149.467C95.6026 149.45 95.6114 149.434 95.6246 149.423C95.6378 149.412 95.6545 149.406 95.6718 149.405H97.8047C97.8223 149.406 97.8395 149.4 97.8532 149.388C97.8668 149.377 97.876 149.362 97.8791 149.344L99.6135 139.542C99.6166 139.525 99.6258 139.509 99.6394 139.498C99.6531 139.487 99.6702 139.481 99.6879 139.481H104.431C104.448 139.481 104.464 139.475 104.477 139.465C104.49 139.455 104.499 139.44 104.503 139.424L105.741 134.057C105.745 134.041 105.754 134.026 105.767 134.016C105.78 134.006 105.796 134 105.813 134H109.117C109.129 134 109.14 134.003 109.15 134.008C109.16 134.012 109.169 134.02 109.176 134.028C109.183 134.037 109.188 134.048 109.19 134.059C109.192 134.07 109.192 134.081 109.19 134.092L107.97 139.389C107.967 139.4 107.967 139.412 107.969 139.423C107.972 139.434 107.977 139.444 107.984 139.453C107.991 139.462 108 139.469 108.01 139.474C108.02 139.479 108.031 139.481 108.042 139.481H112.744C112.755 139.481 112.766 139.483 112.776 139.488C112.786 139.492 112.794 139.499 112.802 139.507C112.809 139.516 112.814 139.526 112.817 139.536C112.82 139.547 112.82 139.558 112.818 139.569L111.086 149.342C111.083 149.359 111.074 149.375 111.06 149.386C111.046 149.398 111.029 149.404 111.012 149.403Z" fill="white"/>
<path d="M128.149 141.172L128.951 137.699C128.954 137.683 128.963 137.668 128.976 137.658C128.988 137.648 129.004 137.642 129.021 137.642H148.004C148.015 137.642 148.026 137.644 148.035 137.649C148.045 137.654 148.053 137.66 148.06 137.669C148.067 137.677 148.072 137.687 148.074 137.697C148.077 137.708 148.077 137.719 148.074 137.729L147.275 141.202C147.272 141.218 147.263 141.233 147.25 141.243C147.237 141.253 147.221 141.259 147.205 141.259H140.112C140.096 141.259 140.08 141.265 140.067 141.275C140.054 141.286 140.046 141.3 140.042 141.316L135.816 159.656C135.812 159.672 135.803 159.686 135.791 159.697C135.778 159.707 135.762 159.713 135.746 159.713H131.171C131.16 159.713 131.15 159.71 131.14 159.706C131.13 159.701 131.122 159.694 131.115 159.686C131.108 159.678 131.104 159.668 131.101 159.657C131.099 159.647 131.099 159.636 131.101 159.625L135.314 141.347C135.317 141.336 135.316 141.326 135.314 141.315C135.312 141.305 135.307 141.295 135.3 141.286C135.293 141.278 135.285 141.271 135.275 141.267C135.265 141.262 135.255 141.259 135.244 141.259H128.219C128.208 141.259 128.198 141.257 128.188 141.252C128.179 141.247 128.17 141.241 128.163 141.232C128.157 141.224 128.152 141.214 128.149 141.204C128.147 141.193 128.147 141.182 128.149 141.172Z" fill="white"/>
<path d="M180.707 157.582C179.84 158.848 178.638 159.618 177.101 159.893C172.944 160.633 169.879 158.322 169.765 154.046C169.687 151.127 170.542 148.635 172.329 146.57C174.32 144.264 177.541 143.118 180.451 144.15C181.709 144.595 182.584 145.528 183.074 146.948L185.22 137.642H189.806L184.719 159.711H180.223L180.714 157.587C180.714 157.586 180.714 157.585 180.713 157.584C180.713 157.584 180.713 157.583 180.712 157.582C180.711 157.582 180.71 157.582 180.71 157.582C180.709 157.582 180.708 157.582 180.707 157.582ZM180.148 147.805C179.28 147.422 178.25 147.502 177.285 148.027C176.32 148.552 175.499 149.479 175.003 150.605C174.506 151.73 174.375 152.962 174.638 154.028C174.901 155.095 175.537 155.909 176.405 156.292C177.273 156.675 178.303 156.595 179.268 156.07C180.233 155.545 181.054 154.618 181.55 153.493C182.047 152.367 182.178 151.136 181.915 150.069C181.652 149.002 181.016 148.188 180.148 147.805Z" fill="white"/>
<path d="M149.336 146.226C150.739 144.266 152.853 143.307 155.25 144.016L154.269 148.269C152.266 147.778 149.228 147.774 148.515 150.244C148.429 150.54 148.296 150.8 148.23 151.074C148.055 151.829 147.39 154.708 146.237 159.711H141.645L145.247 144.078H149.758L149.27 146.195C149.268 146.203 149.269 146.212 149.273 146.219C149.277 146.227 149.283 146.233 149.291 146.237C149.298 146.24 149.307 146.241 149.315 146.239C149.323 146.237 149.331 146.232 149.336 146.226Z" fill="white"/>
<path d="M162.654 157.449C161.987 158.217 161.426 158.752 160.972 159.056C158.325 160.832 152.98 160.333 152.947 156.19C152.916 152.316 156.477 150.925 159.794 150.478C161.054 150.309 162.535 150.147 164.235 149.992C165.832 146.543 160.379 146.186 159.293 148.646C157.819 148.646 156.389 148.646 154.994 148.646C156.034 145.589 158.894 143.874 162.043 143.789C164.119 143.732 166.443 144.056 167.781 145.44C168.862 146.557 169.237 147.994 168.904 149.754C168.797 150.317 168.253 152.727 167.27 156.984C167.13 157.59 167.046 158.499 167.016 159.711H162.446L162.654 157.449ZM163.648 152.668C161.521 152.928 160.274 153.095 159.906 153.168C158.864 153.371 157.668 153.989 157.576 155.187C157.517 155.968 157.975 156.441 158.704 156.566C160.118 156.811 161.511 156.47 162.521 155.452C163.178 154.79 163.554 153.863 163.648 152.668Z" fill="white"/>
<path d="M191.799 158.449L189.517 144.159C189.515 144.149 189.516 144.14 189.518 144.131C189.521 144.122 189.525 144.113 189.531 144.106C189.537 144.098 189.545 144.093 189.553 144.088C189.562 144.084 189.571 144.082 189.58 144.082H194.227C194.243 144.082 194.259 144.088 194.271 144.098C194.283 144.109 194.291 144.123 194.293 144.139L195.383 153.2C195.385 153.214 195.39 153.228 195.4 153.238C195.409 153.248 195.421 153.256 195.435 153.259C195.449 153.262 195.463 153.26 195.476 153.254C195.489 153.249 195.499 153.239 195.506 153.227L200.946 144.115C200.951 144.105 200.96 144.097 200.97 144.091C200.98 144.085 200.991 144.082 201.003 144.082H206.149C206.161 144.082 206.173 144.085 206.183 144.091C206.193 144.097 206.202 144.106 206.207 144.117C206.213 144.127 206.216 144.139 206.215 144.151C206.214 144.163 206.21 144.175 206.203 144.185L191.762 165.972C191.755 165.98 191.747 165.988 191.738 165.993C191.728 165.998 191.718 166 191.707 166H186.937C186.925 166 186.913 165.997 186.903 165.991C186.893 165.985 186.884 165.976 186.879 165.965C186.873 165.955 186.87 165.943 186.871 165.931C186.872 165.919 186.876 165.907 186.883 165.897L191.79 158.498C191.799 158.483 191.802 158.466 191.799 158.449Z" fill="white"/>
</svg>
